<svg xmlns="http://www.w3.org/2000/svg" width="20" height="15"><g fill="#1875F0"><path d="M18.6 0H1.4C.6 0 0 .6 0 1.4v12.2c0 .8.6 1.4 1.4 1.4h17.2c.8 0 1.4-.6 1.4-1.4V1.4c0-.8-.6-1.4-1.4-1.4zm.7 13.6a.7.7 0 0 1-.7.7H1.4a.7.7 0 0 1-.7-.7V1.4c0-.4.3-.7.7-.7h17.2c.4 0 .7.3.7.7v12.2z"/><path d="M4.7 10H2.3c-.2 0-.3.2-.3.5s.1.5.3.5h2.4c.2 0 .3-.2.3-.5s-.1-.5-.3-.5zm5 0H7.3c-.2 0-.3.2-.3.5s.1.5.3.5h2.4c.2 0 .3-.2.3-.5s-.1-.5-.3-.5zm-7 2h-.4c-.2 0-.3.2-.3.5s.1.5.3.5h.4c.2 0 .3-.2.3-.5s-.1-.5-.3-.5z"/><path d="M4.5 12h-1a.5.5 0 1 0 0 1h1a.5.5 0 1 0 0-1zm2.2 0h-.4c-.2 0-.3.2-.3.5s.1.5.3.5h.4c.2 0 .3-.2.3-.5s-.1-.5-.3-.5zm2.8 0h-1a.5.5 0 1 0 0 1h1a.5.5 0 1 0 0-1z"/><path d="M9.1 12.1a.5.5 0 0 0-.1.4l.1.4.4.1.4-.1a.5.5 0 0 0 .1-.4.5.5 0 0 0-.1-.4c-.2-.1-.6-.1-.8 0zM16.7 8a2.2 2.2 0 0 0-1.2.3 2.2 2.2 0 0 0-1.2-.3C13 8 12 9.1 12 10.5s1 2.5 2.3 2.5a2.2 2.2 0 0 0 1.2-.3 2.2 2.2 0 0 0 1.2.3c1.3 0 2.3-1.1 2.3-2.5S18 8 16.7 8zm-.7 2.5c0 .5-.2 1-.5 1.3a1.8 1.8 0 0 1-.5-1.3c0-.5.2-1 .5-1.3.3.4.5.8.5 1.3zm-3.3 0c0-1 .7-1.8 1.6-1.8l.6.1a2.6 2.6 0 0 0-.6 1.7c0 .6.3 1.2.6 1.7a1.6 1.6 0 0 1-.6 0c-.9 0-1.6-.7-1.6-1.7zm4 1.8l-.6-.1a2.6 2.6 0 0 0 .6-1.7 2.6 2.6 0 0 0-.6-1.7h.6c.9 0 1.6.7 1.6 1.7s-.7 1.8-1.6 1.8zM2.7 8h4.5c.5 0 .8-.4.8-.8V3.8c0-.4-.3-.8-.8-.8H2.8c-.5 0-.8.4-.8.8v3.4c0 .4.3.8.8.8zM4 5.9H2.7V5H4V6zM2.7 7.2v-.6H4v.6H2.7zm4.6-1.3H6v-.7h1.3v.7zm0 1.4H6v-.7h1.3v.6zm0-3.6v.7H6c-.4 0-.8.4-.8.8v2h-.5-.1V3.8h2.5zm-4.5 0H4v.7H2.7v-.6z"/></g></svg>