<svg xmlns="http://www.w3.org/2000/svg" width="20" height="21"><g fill="gray"><path d="M20 9a.4.4 0 0 0-.1-.5l-4.4-4.4a.4.4 0 1 0-.6.5l3.8 3.8h-8a.4.4 0 1 0 0 .8h8L15 13a.4.4 0 1 0 .6.5L19.9 9a.4.4 0 0 0 0-.2z"/><path d="M13.2 11a.4.4 0 0 0-.4.3v6.1H9.1V3a.4.4 0 0 0-.3-.3l-6-2h10v6.1a.4.4 0 1 0 .8 0V.4a.4.4 0 0 0-.4-.4H.4.2a.4.4 0 0 0-.1 0v.1H0a.4.4 0 0 0 0 .1.4.4 0 0 0-.1.2v17.5a.4.4 0 0 0 .2.2l8.4 2.7a.4.4 0 0 0 .5-.4v-2.2h4.1a.4.4 0 0 0 .4-.4v-6.5c0-.2-.2-.3-.4-.3zm-4.9 9L.8 17.4V.9l7.5 2.4v16.6z"/></g></svg>