<svg xmlns="http://www.w3.org/2000/svg" width="20" height="20"><g fill="gray"><path d="M20 2.7V0H0v2.7h.7V16H.3a.3.3 0 1 0 0 .7h9.4v.6A1.3 1.3 0 0 0 10 20a1.3 1.3 0 0 0 .3-2.6v-.7h9.4a.3.3 0 1 0 0-.7h-.4V2.7h.7zm-9.3 16a.7.7 0 1 1-1.4 0 .7.7 0 0 1 1.4 0zM.7.7h18.6V2H.7V.7zm18 15.3H1.3V2.7h17.4V16z"/><path d="M12 15a.3.3 0 0 0 .3-.3v-1a.3.3 0 1 0-.6 0v1c0 .2.1.3.3.3zm1.3-3a.3.3 0 0 0-.3.3v2.4a.3.3 0 1 0 .7 0v-2.4a.3.3 0 0 0-.4-.3zm1.4.7a.3.3 0 0 0-.4.3v1.7a.3.3 0 1 0 .7 0V13a.3.3 0 0 0-.3-.3zm1.3-2.4a.3.3 0 0 0-.3.4v4a.3.3 0 1 0 .6 0v-4a.3.3 0 0 0-.3-.4zm1.3 1.4a.3.3 0 0 0-.3.3v2.7a.3.3 0 1 0 .7 0V12a.3.3 0 0 0-.4-.3zm-14 1.6h3.4a.3.3 0 1 0 0-.6H3.3a.3.3 0 1 0 0 .6zm5 .7h-5a.3.3 0 1 0 0 .7h5a.3.3 0 1 0 0-.7zm-1.8-2.7c1 0 1.8-.3 2.5-1a3.8 3.8 0 0 0 1.3-2.5V7.5v-.1a3.9 3.9 0 0 0 0-.6 4 4 0 0 0 0-.2l-.1-.1a3.8 3.8 0 0 0-.1-.3V6a3.6 3.6 0 0 0-.1-.3h-.1a3.7 3.7 0 0 0-.1-.3l-.1-.1-.1-.1-.1-.2a3.8 3.8 0 0 0-.3-.3 3.8 3.8 0 0 0-.3-.2l-.1-.2h-.2l-.1-.2a3.7 3.7 0 0 0-.2 0L8.2 4a3.8 3.8 0 0 0-.3-.2 3.8 3.8 0 0 0-.4 0v-.1a3.8 3.8 0 0 0-.3 0H7a3.8 3.8 0 0 0-.3-.1h-.2-.4a3.8 3.8 0 0 0-3.5 3.8 3.8 3.8 0 0 0 3.8 3.8zm2.3-1.6L7.1 8h2.5a3.2 3.2 0 0 1-.8 1.7zm-2-5.4a2.7 2.7 0 0 1 .3 0v.1h.3a3.2 3.2 0 0 1 2.1 2.2l.1.2V7a3.3 3.3 0 0 1 0 .3v.1h-3v-3h.2zm-.8 0V8h.2l2.1 2.1a3.1 3.1 0 0 1-1.8.6 3.2 3.2 0 0 1-3.2-3.2A3.2 3.2 0 0 1 6 4.4zm7 2h2.7a.3.3 0 1 0 0-.6H13a.3.3 0 1 0 0 .6zm4.1-.5a.3.3 0 0 0-.1.2l.1.2a.3.3 0 0 0 .2.1.3.3 0 0 0 .3 0 .3.3 0 0 0 0-.3.3.3 0 0 0 0-.2.3.3 0 0 0-.5 0zm-.8-1.1h1a.3.3 0 1 0 0-.7h-1a.3.3 0 1 0 0 .7zm-3.3 0h.7a.3.3 0 1 0 0-.7H13a.3.3 0 1 0 0 .7zm2 0a.3.3 0 0 0 .2-.1.3.3 0 0 0 .1-.3.3.3 0 0 0 0-.2.3.3 0 0 0-.5 0 .3.3 0 0 0-.1.2v.3a.3.3 0 0 0 .3 0z"/></g></svg>