<svg xmlns="http://www.w3.org/2000/svg" width="20" height="22"><g fill="gray"><path d="M19.9 3.8a.4.4 0 0 0-.4-.1h-4.3l-1-2.4a2 2 0 0 0-.8-1 2 2 0 0 0-1.1-.3H7.7a2 2 0 0 0-1 .4 2 2 0 0 0-.9.9l-1 2.4H.5a.4.4 0 0 0-.4 0 .4.4 0 0 0-.1.4v1a.4.4 0 0 0 .5.4h1.3v13.6c0 .8.2 1.5.7 2 .4.6 1 .9 1.6.9h11.8a2 2 0 0 0 1.6-.9c.5-.5.7-1.2.7-2V5.5h1.3A.4.4 0 0 0 20 5v-.9a.4.4 0 0 0-.1-.3zM7.5 2a.4.4 0 0 1 .3-.2h4.5a.4.4 0 0 1 .2.2l.7 1.7H6.8L7.5 2zm8.9 17l-.1.7a1.3 1.3 0 0 1-.2.3l-.2.2H4.1l-.2-.2a1.3 1.3 0 0 1-.2-.3 1.6 1.6 0 0 1 0-.6V5.5h12.7v13.6z"/><path d="M6.5 17h1a.5.5 0 0 0 .4-.1.4.4 0 0 0 .1-.3V8.3a.4.4 0 0 0-.1-.3.5.5 0 0 0-.4-.1h-1a.5.5 0 0 0-.4.1.4.4 0 0 0-.1.3v8.1l.1.4a.5.5 0 0 0 .4.1zm3 0h1a.5.5 0 0 0 .4-.1.4.4 0 0 0 .1-.3V8.3a.4.4 0 0 0-.1-.3.5.5 0 0 0-.4-.1h-1a.5.5 0 0 0-.4.1.4.4 0 0 0-.1.3v8.1l.1.4a.5.5 0 0 0 .4.1zm3 0h1a.5.5 0 0 0 .4-.1.4.4 0 0 0 .1-.3V8.3a.4.4 0 0 0-.1-.3.5.5 0 0 0-.4-.1h-1a.5.5 0 0 0-.4.1.4.4 0 0 0-.1.3v8.1l.1.4a.5.5 0 0 0 .4.1z"/></g></svg>