<?xml version="1.0" encoding="utf-8"?>
<!-- Generator: Adobe Illustrator 21.0.0, SVG Export Plug-In . SVG Version: 6.00 Build 0)  -->
<svg version="1.1" id="Layer_1" xmlns="http://www.w3.org/2000/svg" xmlns:xlink="http://www.w3.org/1999/xlink" x="0px" y="0px"
	 width="25.3px" height="11px" viewBox="0 0 25.3 11" style="enable-background:new 0 0 25.3 11;" xml:space="preserve">
<style type="text/css">
	.st0{fill:#666666;}
</style>
<g>
	<path class="st0" d="M1.1,7.6h4v0.9H0V0h1.1V7.6z"/>
	<path class="st0" d="M6,5.3c0-0.6,0.1-1.2,0.4-1.7s0.6-0.9,1-1.1s0.9-0.4,1.5-0.4c0.9,0,1.6,0.3,2.1,0.9s0.8,1.4,0.8,2.4v0.1
		c0,0.6-0.1,1.2-0.4,1.7s-0.6,0.9-1,1.1S9.5,8.6,8.9,8.6C8,8.6,7.3,8.3,6.8,7.8S6,6.4,6,5.3L6,5.3z M7.1,5.4c0,0.7,0.2,1.3,0.5,1.7
		s0.8,0.6,1.3,0.6c0.6,0,1-0.2,1.3-0.6s0.5-1,0.5-1.8c0-0.7-0.2-1.3-0.5-1.7S9.4,3,8.9,3c-0.5,0-1,0.2-1.3,0.6S7.1,4.6,7.1,5.4z"/>
	<path class="st0" d="M12.9,5.3c0-1,0.2-1.8,0.7-2.4s1.1-0.9,1.8-0.9c0.8,0,1.4,0.3,1.8,0.8l0.1-0.7h1v6.2c0,0.8-0.2,1.5-0.7,1.9
		s-1.1,0.7-2,0.7c-0.5,0-0.9-0.1-1.3-0.3s-0.8-0.5-1-0.8l0.6-0.7c0.5,0.6,1,0.9,1.7,0.9c0.5,0,0.9-0.1,1.2-0.4s0.4-0.7,0.4-1.3V7.9
		c-0.4,0.5-1,0.8-1.8,0.8c-0.7,0-1.3-0.3-1.8-0.9S12.9,6.3,12.9,5.3z M14,5.4c0,0.7,0.1,1.3,0.4,1.7s0.7,0.6,1.2,0.6
		c0.7,0,1.2-0.3,1.5-0.9V3.9C16.8,3.3,16.3,3,15.6,3c-0.5,0-0.9,0.2-1.2,0.6S14,4.6,14,5.4z"/>
	<path class="st0" d="M19.6,5.3c0-0.6,0.1-1.2,0.4-1.7s0.6-0.9,1-1.1s0.9-0.4,1.5-0.4c0.9,0,1.6,0.3,2.1,0.9s0.8,1.4,0.8,2.4v0.1
		c0,0.6-0.1,1.2-0.4,1.7S24.4,8,24,8.2S23,8.6,22.5,8.6c-0.9,0-1.6-0.3-2.1-0.9S19.6,6.4,19.6,5.3L19.6,5.3z M20.7,5.4
		c0,0.7,0.2,1.3,0.5,1.7s0.8,0.6,1.3,0.6c0.6,0,1-0.2,1.3-0.6s0.5-1,0.5-1.8c0-0.7-0.2-1.3-0.5-1.7S23,3,22.5,3
		c-0.5,0-1,0.2-1.3,0.6S20.7,4.6,20.7,5.4z"/>
</g>
</svg>
