<svg xmlns="http://www.w3.org/2000/svg" width="20" height="19"><path fill="#1875F0" d="M19.7 17v-1.3H19V15a.7.7 0 0 0-.7-.7V9a.7.7 0 0 0 .7-.7v-.6h.9l-1-2h-2.3l-.7-2h-.4C15.2 1.7 12.9 0 10 0S4.7 1.6 4.5 3.7H4l-.7 2H1.1l-1 2H1v.6c0 .4.3.7.7.7v5.3a.7.7 0 0 0-.7.7v.7H.3V17H0v2h20v-2h-.3zm-1.4-8.7a.7.7 0 0 0-.6.7v5.3c0 .4.3.7.6.7v.7h-2V15a.7.7 0 0 0 .7-.7V9a.7.7 0 0 0-.7-.7v-.6h2v.6zm-14.6 6V9a.7.7 0 0 0 .6-.7v-.6h.4v.6c0 .4.3.7.6.7v5.3a.7.7 0 0 0-.6.7v.7h-.4V15a.7.7 0 0 0-.6-.7zm1.6.7a.7.7 0 0 0 .7-.7V9a.7.7 0 0 0-.7-.7v-.6h2v.6a.7.7 0 0 0-.6.7v5.3c0 .4.3.7.6.7v.7h-2V15zm2-.7V9a.7.7 0 0 0 .7-.7v-.6h.3v.6c0 .4.3.7.7.7v5.3a.7.7 0 0 0-.7.7v.7H8V15a.7.7 0 0 0-.7-.7zM9 15a.7.7 0 0 0 .7-.7V9a.7.7 0 0 0-.7-.7v-.6h2v.6a.7.7 0 0 0-.7.7v5.3c0 .4.3.7.7.7v.7H9V15zm2-.7V9a.7.7 0 0 0 .7-.7v-.6h.3v.6c0 .4.3.7.7.7v5.3a.7.7 0 0 0-.7.7v.7h-.3V15a.7.7 0 0 0-.7-.7zm1.7.7a.7.7 0 0 0 .6-.7V9a.7.7 0 0 0-.6-.7v-.6h2v.6a.7.7 0 0 0-.7.7v5.3c0 .4.3.7.7.7v.7h-2V15zm2-.7V9a.7.7 0 0 0 .6-.7v-.6h.4v.6c0 .4.3.7.6.7v5.3a.7.7 0 0 0-.6.7v.7h-.4V15a.7.7 0 0 0-.6-.7zM5.2 4.7l-1 .6.4-1h1.3l-.7.4zm.6.5L10 2.7l5 3H5l.8-.5zm10 0l-1-.5-.7-.4h1.3l.3 1zM10 .8c2.5 0 4.6 1.3 4.8 3H13l-3-1.8-3 1.8H5.2C5.4 2 7.5.7 10 .7zM1.5 6.3h16.9l.4.7H1.2l.3-.7zm.2 8.7a.7.7 0 0 0 .6-.7V9a.7.7 0 0 0-.6-.7v-.6h2v.6A.7.7 0 0 0 3 9v5.3c0 .4.3.7.7.7v.7h-2V15zM1 16.3h18v.7H1v-.7zm18.3 2H.7v-.6h18.6v.6z"/></svg>