<svg xmlns="http://www.w3.org/2000/svg" width="20" height="20"><g fill="gray"><path d="M20 6.4a2.7 2.7 0 0 0-2.7-2.7h-2.6v-1H14v-.4A2.3 2.3 0 0 0 11.7 0H8.3A2.3 2.3 0 0 0 6 2.3v.4h-.7v1H2.7A2.7 2.7 0 0 0 0 6.4v3.4h.2l.1.1v9c0 .6.5 1.1 1.1 1.1h17.2c.6 0 1-.5 1-1V9.8h.2l.2-.1V6.4zm-2.7-2c1.1 0 2 .8 2 2v3H19l-1.4.5c-1.5.5-3 .8-5 1V8.3h-1v-4h5.7zM9 13h2v.5l-.8.8h-.4l-.8-.8V13zm-.7-.7H8V9h4v3.3H8.3zM12 2.7h-.7v1H8.7v-1H8V2a.2.2 0 0 1 .3-.1 4.5 4.5 0 0 0 3.4 0 .2.2 0 0 1 .3.1v.6zM9 4.3h2v4H9v-4zm5-.6h-2v-.4h2v.4zM6.7 2.3c0-.9.7-1.6 1.6-1.6h3.4c.9 0 1.6.7 1.6 1.6v.4h-.6V2a.9.9 0 0 0-1.2-.7 3.9 3.9 0 0 1-3 0 .9.9 0 0 0-1.2.7v.6h-.6v-.4zm-.7 1h2v.4H6v-.4zm-3.3 1h5.6v4h-1V11a20 20 0 0 1-4.9-1L1 9.4H.7v-3c0-1.2.9-2 2-2zM19 19a.4.4 0 0 1-.4.4H1.4A.4.4 0 0 1 1 19v-8.8l1.2.5c1.7.5 3.2.8 5.1 1V13h1v.8L9.5 15h1l1.2-1.2V13h1v-1.4c2-.2 3.6-.5 5-1L19 10V19z"/><path d="M14 18.3h4v-2h-4v2zm.7-1.3h2.6v.7h-2.6V17zM9 11.3h.7v.4a.3.3 0 1 0 .6 0v-.4h.7v-2H9v2zm.7-1.3h.6v.7h-.6V10z"/></g></svg>