<svg xmlns="http://www.w3.org/2000/svg" width="48" height="58"><path fill="#CCC" fill-rule="evenodd" d="M35 41.9V37a1 1 0 0 0-1-1h-.6a1 1 0 0 0-1 1v4.8h-4.5a1.3 1.3 0 1 0 0 2.6h4.5v4.8a1 1 0 0 0 1 1h.6a1 1 0 0 0 1-1v-4.8h4.5a1.3 1.3 0 0 0 0-2.6H35zM32.5 6.7a1 1 0 0 1 1.7-.7l7.2 7.1a1 1 0 0 1-.8 1.7h-6a2 2 0 0 1-2-2v-6zm-2 7L30.6 3H5c-1 0-2 .3-2 1.4v49.2c0 1 .3 1.4 1.4 1.4h39.4c1 0 1.3-.3 1.3-1.4V17H33.6a3.1 3.1 0 0 1-3-3v-.2zM47.1 56c0 1 0 1-1 1H2C1 57 .8 57 .8 56V2C1 1 1 .9 2 .9h30.3a2 2 0 0 1 1.4.6l12.8 13a2 2 0 0 1 .6 1.3v40.3z"/></svg>