<svg xmlns="http://www.w3.org/2000/svg" width="20" height="20"><g fill="#CCC"><path d="M10.3 1.3v-1a.3.3 0 1 0-.6 0v1H0v14h9.2l-4.1 4.1a.3.3 0 1 0 .5.5l4-4V19a.3.3 0 1 0 .7 0v-3.2l4.1 4.1a.3.3 0 0 0 .5 0 .3.3 0 0 0 0-.5l-4-4H20v-14h-9.7zM1.7 14.7v-1h2v1h-2zm2-1.7h-2v-1h2v1zm1.6 1.7v-1h2v1h-2zm2-1.7h-2v-3h2v3zM9 14.7v-1h2v1H9zm2-1.7H9V8h2v5zm1.7 1.7v-1h2v1h-2zm2-1.7h-2v-2.7h2V13zm1.6 1.7v-1h2v1h-2zm2-1.7h-2V6h2v7zm1 1.7H19V5.3h-3.3v9.4h-.4v-5H12v5h-.3V7.3H8.3v7.4H8V9.3H4.7v5.4h-.4v-3.4H1v3.4H.7V2h18.6v12.7z"/><path d="M4.1 4.7a.3.3 0 0 0-.1 0H2.3a.3.3 0 1 0 0 .6h.9L1.4 7.1a.3.3 0 1 0 .5.5l1.8-1.8v.9a.3.3 0 1 0 .6 0V5a.3.3 0 0 0-.2-.3z"/></g></svg>