<svg xmlns="http://www.w3.org/2000/svg" width="16" height="16"><g fill="#F5A623"><path d="M7.8 11c-.4 0-.8.4-.8.8 0 .5.4.9.8.9s.8-.4.8-.8c0-.5-.3-.9-.8-.9z"/><path d="M15.6 14.4c.5-1 .5-2.1 0-3l-5.1-9.8C10 .6 9 0 8 0S6 .6 5.5 1.6L.4 11.3a3.3 3.3 0 0 0 0 3.2c.5 1 1.4 1.5 2.4 1.5h10.3c1 0 2-.6 2.5-1.6zm-1.1-.7c-.3.6-.8.9-1.4.9H2.8c-.5 0-1-.3-1.3-.9a1.8 1.8 0 0 1 0-1.7l5.2-9.7c.2-.6.7-.9 1.3-.9.6 0 1 .3 1.3.9l5.2 9.7a1.8 1.8 0 0 1 0 1.7z"/><path d="M7.6 5c-.4.2-.6.6-.6 1v1l.2 3.2c0 .4.3.7.6.7s.6-.3.6-.7v-.7l.1-2.1.1-1.4v-.5c-.2-.4-.6-.6-1-.5z"/></g></svg>